<svg xmlns="http://www.w3.org/2000/svg" width="288" height="289" viewBox="0 0 288 289" fill="none"><path d="M144.09 208.757C179.526 208.757 208.252 180.03 208.252 144.595C208.252 109.159 179.526 80.4325 144.09 80.4325C108.654 80.4325 79.9277 109.159 79.9277 144.595C79.9277 180.03 108.654 208.757 144.09 208.757Z" stroke="white" stroke-width="8.60713" stroke-dasharray="1.43 11.47"></path><path d="M50.4403 113.316L49.8443 114.997L46.2942 113.781C45.3211 113.459 44.5563 113.101 43.858 112.309L39.0694 106.979L36.617 113.897L35.1289 113.37L38.287 104.461L39.4078 104.858L44.8391 110.83C45.3853 111.437 46.1502 111.795 47.1937 112.165L50.4403 113.316Z" fill="white"></path><path d="M62.1591 90.216L59.4216 94.181L47.5605 85.9909L50.3913 81.8915C52.7094 78.5339 55.3626 78.6965 57.556 80.2108L61.2003 82.7266C63.3937 84.2412 64.6403 86.6219 62.1591 90.216ZM51.6672 82.8224L49.8563 85.4085L59.1191 91.804L60.9479 89.1557C62.4157 87.0288 61.9637 85.4471 60.1415 84.1889L56.4972 81.6725C54.8437 80.5313 53.1815 80.6284 51.6672 82.8224Z" fill="white"></path><path d="M74.2053 75.7846L70.0566 80.1576L68.9709 79.1274L70.4385 77.5805L62.109 69.6784L60.6414 71.2253L59.5557 70.1951L63.7042 65.8222L64.79 66.8523L63.3366 68.3844L71.666 76.2865L73.1195 74.7545L74.2053 75.7846Z" fill="white"></path><path d="M79.5457 70.7239L78.2711 71.7238L77.9041 71.256L72.9551 57.5745L74.8908 56.0557L87.009 64.0605L87.401 64.5605L86.0781 65.5983L82.5562 63.2018L78.0558 66.7328L79.5457 70.7239ZM74.8237 58.0629L77.4628 65.1133L81.125 62.2404L74.9043 57.9996L74.8237 58.0629Z" fill="white"></path><path d="M98.3096 53.5434C99.4932 55.7002 99.1609 58.0345 96.1417 59.6921C92.8712 61.488 91.3852 60.3155 90.7443 59.1473L90.0337 57.8533L91.5035 56.9526L92.0461 57.941C92.5302 58.8217 93.4523 59.4376 95.4834 58.3227C97.604 57.1583 97.3924 55.7076 96.7416 54.5214C96.0409 53.2454 95.0901 53.0893 93.6403 53.3469L91.2894 53.7493C89.1377 54.1348 87.8222 53.5707 86.9349 51.9532C85.8696 50.0122 86.284 47.9133 89.1775 46.3247C92.107 44.7163 93.6776 45.7019 94.2887 46.8163L95.0976 48.29L93.654 49.1529L93.0118 47.9849C92.5787 47.194 91.6379 46.5879 89.8396 47.5747C87.989 48.5909 87.8434 49.8169 88.4171 50.9051C89.0294 52.0194 89.9939 52.2851 91.4151 52.0194L93.7933 51.5792C95.5332 51.2554 97.1162 51.3689 98.3096 53.5434Z" fill="white"></path><path d="M120.377 49.8137L115.695 50.952L112.29 36.9465L117.131 35.7696C121.096 34.8057 122.969 36.6927 123.598 39.2825L124.644 43.5857C125.274 46.1756 124.621 48.7821 120.377 49.8137ZM117.465 37.3133L114.392 38.0393L117.05 48.9766L120.179 48.2162C122.689 47.6059 123.405 46.1237 122.882 43.9721L121.835 39.6689C121.361 37.7165 120.054 36.6837 117.465 37.3133Z" fill="white"></path><path d="M142.283 46.8109L133.691 47.387L132.727 33.0059L140.909 32.4572L141.017 34.0733L134.614 34.5026L134.924 39.1258L140.98 38.7199L141.087 40.3154L135.031 40.7214L135.362 45.6515L142.175 45.1948L142.283 46.8109Z" fill="white"></path><path d="M163.835 43.073L164.134 41.5436L169.728 42.6338L168.348 49.7175L167.22 49.4979L167.261 48.002C166.268 48.811 164.863 49.3728 162.892 48.9885C159.208 48.2708 158.429 45.842 158.998 42.9239L159.86 38.4967C160.381 35.8202 162.171 33.4953 166.217 34.2836C170.181 35.0562 170.64 37.5268 170.267 39.4386L170.106 40.2637L168.335 40.0231L168.508 39.1376C168.763 37.8295 168.53 36.343 165.854 35.8213C163.338 35.3311 162.086 36.6119 161.667 38.7652L160.816 43.1321C160.345 45.5471 161 47.0115 163.434 47.486C166.232 48.0311 167.25 46.4539 167.52 45.0653L167.759 43.8377L163.835 43.073Z" fill="white"></path><path d="M175.785 51.9178L174.271 51.3411L174.483 50.7855L183.656 39.4927L185.955 40.3687L185.341 54.8787L185.115 55.4727L183.544 54.8741L183.782 50.6208L178.437 48.5841L175.785 51.9178ZM184.2 41.3457L179.52 47.2412L183.868 48.8983L184.296 41.3822L184.2 41.3457Z" fill="white"></path><path d="M199.089 63.196L197.605 62.3234L197.92 55.6361L195.48 54.2023L192.479 59.3106L190.94 58.4067L198.244 45.9807L202.716 48.6092C204.696 49.7728 205.516 51.7767 204.467 53.562L203.708 54.8523C202.773 56.4431 201.106 56.7712 199.618 56.3485L199.391 62.6834L199.089 63.196ZM198.982 48.2456L196.281 52.8413L198.561 54.1815C199.851 54.9399 201.373 55.2637 202.257 53.7613L202.745 52.9305C203.399 51.8169 203.047 50.6352 201.404 49.6689L198.982 48.2456Z" fill="white"></path><path d="M205.078 67.5102L203.837 66.4683L204.219 66.013L216.593 58.3605L218.477 59.9431L213.131 73.4463L212.723 73.9329L211.435 72.8515L213.057 68.9125L208.678 65.2329L205.078 67.5102ZM216.5 60.2896L210.14 64.3199L213.705 67.3137L216.578 60.3555L216.5 60.2896Z" fill="white"></path><path d="M218.379 79.861L217.294 78.5509L228.39 69.3525L229.659 70.8837L225.129 83.5066L225.169 83.5539L234.056 76.1873L235.141 77.4974L224.045 86.6963L222.802 85.1967L227.274 72.568L227.235 72.5207L218.379 79.861Z" fill="white"></path><path d="M231.136 97.8207L230.255 96.27L241.362 89.9629L239.226 86.2007L240.653 85.3906L245.806 94.4655L244.379 95.2756L242.243 91.5135L231.136 97.8207Z" fill="white"></path><path d="M237.962 112.867L235.759 107.256L237.153 106.709L237.932 108.694L248.618 104.498L247.839 102.513L249.233 101.965L251.436 107.577L250.042 108.123L249.27 106.158L238.584 110.354L239.355 112.319L237.962 112.867Z" fill="white"></path><path d="M240.287 119.844L239.921 118.266L240.501 118.132L254.989 119.447L255.546 121.844L243.16 129.428L242.541 129.571L242.161 127.934L245.825 125.76L244.533 120.187L240.287 119.844ZM253.756 120.933L246.252 120.336L247.302 124.87L253.778 121.033L253.756 120.933Z" fill="white"></path><path d="M238.173 175.736L238.768 174.054L242.318 175.269C243.291 175.592 244.057 175.951 244.755 176.742L249.543 182.073L251.996 175.154L253.484 175.682L250.325 184.59L249.205 184.193L243.773 178.221C243.227 177.615 242.463 177.256 241.419 176.887L238.173 175.736Z" fill="white"></path><path d="M226.449 198.836L229.187 194.871L241.048 203.06L238.217 207.16C235.899 210.518 233.245 210.355 231.053 208.84L227.409 206.324C225.215 204.809 223.968 202.43 226.449 198.836ZM236.942 206.229L238.752 203.642L229.489 197.248L227.66 199.896C226.193 202.022 226.644 203.605 228.466 204.863L232.112 207.379C233.764 208.52 235.427 208.422 236.942 206.229Z" fill="white"></path><path d="M214.403 213.266L218.552 208.892L219.638 209.923L218.17 211.47L226.5 219.372L227.967 217.825L229.054 218.855L224.904 223.228L223.819 222.199L225.273 220.667L216.943 212.764L215.49 214.296L214.403 213.266Z" fill="white"></path><path d="M209.062 218.327L210.337 217.326L210.704 217.794L215.653 231.476L213.718 232.994L201.599 224.99L201.207 224.489L202.53 223.451L206.052 225.848L210.552 222.318L209.062 218.327ZM213.784 230.987L211.146 223.937L207.484 226.809L213.704 231.05L213.784 230.987Z" fill="white"></path><path d="M190.294 235.507C189.11 233.351 189.443 231.017 192.462 229.359C195.732 227.563 197.218 228.735 197.86 229.904L198.571 231.197L197.1 232.098L196.557 231.11C196.075 230.229 195.151 229.613 193.12 230.728C190.999 231.893 191.211 233.344 191.863 234.53C192.563 235.805 193.515 235.961 194.963 235.703L197.315 235.301C199.466 234.916 200.781 235.481 201.67 237.097C202.735 239.039 202.321 241.138 199.427 242.726C196.498 244.334 194.927 243.348 194.315 242.234L193.506 240.761L194.951 239.897L195.592 241.066C196.026 241.856 196.967 242.462 198.764 241.477C200.614 240.46 200.76 239.234 200.186 238.145C199.575 237.031 198.611 236.766 197.19 237.031L194.811 237.472C193.07 237.795 191.489 237.682 190.294 235.507Z" fill="white"></path><path d="M168.235 239.238L172.917 238.1L176.322 252.105L171.48 253.282C167.515 254.247 165.642 252.359 165.013 249.769L163.967 245.467C163.338 242.877 163.991 240.27 168.235 239.238ZM171.147 251.739L174.22 251.012L171.56 240.075L168.433 240.836C165.923 241.446 165.207 242.928 165.73 245.08L166.776 249.383C167.25 251.336 168.557 252.369 171.147 251.739Z" fill="white"></path><path d="M146.327 242.24L154.918 241.664L155.882 256.046L147.7 256.593L147.592 254.978L153.995 254.549L153.685 249.925L147.629 250.331L147.522 248.736L153.578 248.33L153.247 243.399L146.435 243.856L146.327 242.24Z" fill="white"></path><path d="M124.774 245.978L124.476 247.507L118.881 246.417L120.261 239.333L121.389 239.552L121.348 241.048C122.341 240.239 123.746 239.678 125.718 240.063C129.401 240.779 130.18 243.209 129.612 246.127L128.749 250.554C128.227 253.231 126.438 255.555 122.393 254.766C118.428 253.995 117.97 251.523 118.342 249.612L118.503 248.787L120.274 249.028L120.101 249.913C119.845 251.221 120.078 252.708 122.755 253.229C125.27 253.72 126.522 252.438 126.942 250.285L127.793 245.918C128.263 243.504 127.609 242.039 125.174 241.565C122.377 241.02 121.36 242.596 121.089 243.985L120.85 245.212L124.774 245.978Z" fill="white"></path><path d="M112.828 237.132L114.342 237.71L114.13 238.265L104.957 249.558L102.658 248.681L103.272 234.172L103.498 233.578L105.069 234.177L104.831 238.43L110.176 240.466L112.828 237.132ZM104.412 247.704L109.094 241.809L104.745 240.153L104.317 247.668L104.412 247.704Z" fill="white"></path><path d="M89.521 225.855L91.0057 226.728L90.6896 233.416L93.1288 234.849L96.1306 229.741L97.6688 230.644L90.3648 243.071L85.8933 240.442C83.9133 239.279 83.0944 237.275 84.1435 235.489L84.9014 234.199C85.8361 232.608 87.5037 232.281 88.9921 232.703L89.2186 226.368L89.521 225.855ZM89.628 240.806L92.3286 236.21L90.0487 234.871C88.7581 234.112 87.2361 233.788 86.3525 235.29L85.8647 236.121C85.2101 237.234 85.5623 238.416 87.2062 239.382L89.628 240.806Z" fill="white"></path><path d="M83.5334 221.541L84.7729 222.583L84.3908 223.038L72.0165 230.691L70.1328 229.108L75.4792 215.605L75.888 215.118L77.1752 216.2L75.5529 220.139L79.933 223.817L83.5334 221.541ZM72.1109 228.761L78.4694 224.731L74.906 221.737L72.0324 228.696L72.1109 228.761Z" fill="white"></path><path d="M70.229 209.19L71.3149 210.5L60.2183 219.698L58.9492 218.168L63.4788 205.545L63.4396 205.497L54.5527 212.864L53.4668 211.553L64.5634 202.355L65.8064 203.855L61.3345 216.483L61.3737 216.53L70.229 209.19Z" fill="white"></path><path d="M57.4756 191.231L58.3563 192.781L47.2488 199.088L49.3848 202.851L47.9585 203.659L42.8057 194.585L44.232 193.776L46.368 197.537L57.4756 191.231Z" fill="white"></path><path d="M50.6473 176.185L52.8503 181.795L51.4572 182.342L50.6779 180.357L39.9906 184.554L40.7699 186.539L39.3768 187.085L37.1738 181.475L38.5669 180.927L39.3388 182.894L50.0259 178.697L49.2542 176.731L50.6473 176.185Z" fill="white"></path><path d="M48.326 169.206L48.6916 170.784L48.1123 170.918L33.6228 169.604L33.0674 167.207L45.4528 159.623L46.0719 159.479L46.4515 161.117L42.7883 163.292L44.0796 168.865L48.326 169.206ZM34.857 168.118L42.3615 168.716L41.3108 164.182L34.8338 168.019L34.857 168.118Z" fill="white"></path><path opacity="0.3" d="M144.093 287.686C223.121 287.686 287.186 223.621 287.186 144.593C287.186 65.5648 223.121 1.5 144.093 1.5C65.0649 1.5 1 65.5648 1 144.593C1 223.621 65.0649 287.686 144.093 287.686Z" stroke="white" stroke-width="1.36931"></path><path d="M127.34 176.556L151.767 128.218V127.815H123.312V117.63H164.658V127.959L140.201 176.556H127.34Z" fill="url(#paint0_linear_447_12469)"></path><defs><linearGradient id="paint0_linear_447_12469" x1="143.985" y1="117.63" x2="143.985" y2="176.556" gradientUnits="userSpaceOnUse"><stop stop-color="#C97992"></stop><stop offset="1" stop-color="#9B5168"></stop></linearGradient></defs></svg>